/* XPM */
static char *result[] = {
/* columns rows colors chars-per-pixel */
"32 32 103 2 ",
"   c #05050F",
".  c #10101B",
"X  c #616176",
"o  c #050510",
"O  c #070714",
"+  c #070715",
"@  c #080817",
"#  c #090919",
"$  c #09091A",
"%  c #1B1B2B",
"&  c #080816",
"*  c #09091B",
"=  c #0A0A1D",
"-  c #0B0B1F",
";  c #0C0C22",
":  c #0C0C23",
">  c #060611",
",  c #060612",
"<  c #1A1A2B",
"1  c #0C0C1E",
"2  c #0B0B21",
"3  c #0D0D25",
"4  c #0D0D26",
"5  c #141421",
"6  c #080818",
"7  c #121223",
"8  c #45455E",
"9  c #3F3F58",
"0  c #1E1E36",
"q  c #0E0E28",
"w  c #0E0E29",
"e  c #161627",
"r  c #0A0A1C",
"t  c #171730",
"y  c #171731",
"u  c #0D0D27",
"i  c #0E0E2A",
"p  c #0F0F2C",
"a  c #10102F",
"s  c #111130",
"d  c #111131",
"f  c #0C0C24",
"g  c #10102D",
"h  c #0F0F2B",
"j  c #232334",
"k  c #1A1A35",
"l  c #363654",
"z  c #565678",
"x  c #181838",
"c  c #14142D",
"v  c #464663",
"b  c #0F0F2A",
"n  c #222241",
"m  c #121231",
"M  c #191939",
"N  c #15152E",
"B  c #2A2A48",
"V  c #1E1E3D",
"C  c #141434",
"Z  c #141436",
"A  c #1F1F3F",
"S  c #151537",
"D  c #16163B",
"F  c #17173C",
"G  c #151538",
"H  c #141435",
"J  c #16163A",
"K  c #131334",
"L  c #10102E",
"P  c #131333",
"I  c #525272",
"U  c #424263",
"Y  c #1E1E3F",
"T  c #535378",
"R  c #1D1D42",
"E  c #3C3C5C",
"W  c #151534",
"Q  c #484863",
"!  c #252546",
"~  c #27274B",
"^  c #626289",
"/  c #121232",
"(  c #1A1A39",
")  c #17173B",
"_  c #1B1B3B",
"`  c #232347",
"'  c #2F2F52",
"]  c #131332",
"[  c #14142E",
"{  c #161639",
"}  c #4D4D6A",
"|  c #232341",
" . c #5D5D7F",
".. c #0F0F2D",
"X. c #46466A",
"o. c #3C3C61",
"O. c #151539",
"+. c #2B2B48",
"@. c #1D1D41",
"#. c #222236",
"$. c #1E1E32",
"%. c #1B1B2E",
"&. c #1F1F2B",
/* pixels */
"                    . X   o O O + @ @ @ @ @ # $ $ $ $ $ $ $ $ $ ",
"                    o % & $ $ $ $ $ $ $ $ $ $ $ $ $ * = - ; : : ",
"            > , O @ # $ $ $ $ $ $ < $ $ 1 1 $ $ = 2 3 4 4 4 4 4 ",
"    > 5 6 # $ 7 $ $ $ $ $ $ $ $ $ $ $ $ 8 9 - ; 4 4 4 0 4 4 q w ",
"o @ $ e $ $ $ 7 $ $ $ $ $ $ $ $ * r r 2 t y 4 4 4 u i p a s d d ",
"6 $ $ $ $ $ $ $ $ $ $ $ = - ; f 4 4 4 4 4 u i g a d d d d d d d ",
"$ $ $ $ $ $ $ $ $ = 2 f 0 4 4 4 0 4 4 w h a d d d d d d d d d d ",
"j $ $ $ $ $ * - 4 4 k 4 4 4 4 4 q p s d d d d l d d z x d d d d ",
"$ $ $ $ = ; 4 4 4 c v 4 4 4 i s d d d d d d d d d d d d d d d d ",
"$ * - f 4 4 4 4 4 4 4 b g d d d n d d d d m m m m m m m m M d d ",
"* : 4 0 4 4 4 N 4 u p d B d d d d d m m V m m C Z m m m m n d d ",
"f 4 4 4 4 4 4 N q a d d d d d d m m m m A S D F F G m m m m d d ",
"4 4 4 4 4 4 4 w d d d d d d d m m m H J F F F F F F K m m m d d ",
"4 4 4 4 4 u L d d d d d d m m m P J F F F F F F F F S m I x d d ",
"k 4 4 4 q a d d d U Y d m m P Z F F T R F F F F F F S m E W d d ",
"Q 4 4 i s d d d d ! m m P J ~ F F F F F F F F F F F K m m m d d ",
"4 4 i d d B d d d m m P F F F F F F F F F F F ^ F J / m m d d d ",
"4 q s d d d d d m m K F F F F F F F F F F F F F J / m m d n M g ",
"u L d d d d d m ( K ) F F F F F F F F F F F F J / m ( ( d d d w ",
"h d d d d d m m _ F F F ` ` F F F F F F F F J / m m d d d d p 4 ",
"d d d d d m m m F F F F F F F F F F ' F F J ] m d d d d d p [ 4 ",
"d d n d m m m m F F F F F F F F F F F F { ] m d d d d s w 4 } 4 ",
"d d d d d m m m G F F F F F F F F F F G m m | d d d a u 4 4 4 4 ",
"d d d d d m  .m m ) F F F F F F F F Z m m m m d d ..4 N N 4 4 - ",
"d d d d d d m m m P D F X.o.F F O.P m m +.m m d w 4 4 4 4 4 - $ ",
"d d d d d d d m m | P O.@.@.O.H m m m m m m d i 4 4 N 4 ; * $ $ ",
"L d d d d d d d d m m m m m ( m m n m m m d b 4 4 4 0 : $ $ $ $ ",
"u a d d d d d B d d m m m m ( m d d d d d g 4 4 4 4 : $ $ $ $ 6 ",
"4 u a d d d d d d d d d d d d d d d d d a u 4 4 4 ; $ $ #.$.$ o ",
"4 4 u ..d d d d d d d B d d d d d z d d q 0 4 4 ; $ $ $ $.%.O   ",
"4 4 4 4 q h g s d n d d d d d d d x L w 4 N 4 : $ < $ $ $ @ o   ",
"4 4 4 4 4 4 4 4 4 w h h h h h h h u 4 4 4 4 : $ $ $ $ $ 6 o &.  "
};
