/* XPM */
static char *result[] = {
/* columns rows colors chars-per-pixel */
"32 32 164 2 ",
"   c #05050F",
".  c #060612",
"X  c #060813",
"o  c #080817",
"O  c #070D1A",
"+  c #090A1B",
"@  c #10101B",
"#  c #0D0D26",
"$  c #0F0F2A",
"%  c #0B1324",
"&  c #0D132B",
"*  c #0C1B2C",
"=  c #121425",
"-  c #111927",
";  c #11122E",
":  c #15192C",
">  c #1C1C2C",
",  c #0E1C33",
"<  c #111231",
"1  c #111C33",
"2  c #1D1D34",
"3  c #171938",
"4  c #191939",
"5  c #0C2535",
"6  c #0E2837",
"7  c #0F2A38",
"8  c #122236",
"9  c #102C37",
"0  c #152539",
"q  c #1B243A",
"w  c #112C3A",
"e  c #14323D",
"r  c #1E363F",
"t  c #17393F",
"y  c #1B393C",
"u  c #232335",
"i  c #1E2C43",
"p  c #153440",
"a  c #1B3541",
"s  c #173942",
"d  c #193C44",
"f  c #222241",
"g  c #282A47",
"h  c #203740",
"j  c #2D3F45",
"k  c #243C42",
"l  c #2D3550",
"z  c #393C54",
"x  c #1D4247",
"c  c #1D4349",
"v  c #224246",
"b  c #234549",
"n  c #2B4648",
"m  c #22494B",
"M  c #2E4A4B",
"N  c #2B4345",
"B  c #324547",
"V  c #3B4647",
"C  c #344A4B",
"Z  c #3E4D4A",
"A  c #39544C",
"S  c #244D53",
"D  c #2B4F53",
"F  c #265050",
"G  c #295355",
"H  c #2F5E56",
"J  c #2A565A",
"K  c #2E5B5E",
"L  c #305F56",
"P  c #3D5555",
"I  c #3F774E",
"U  c #2F6051",
"Y  c #396E54",
"T  c #33635A",
"R  c #3A6B5C",
"E  c #3E635C",
"W  c #2F5E61",
"Q  c #346466",
"!  c #396364",
"~  c #376865",
"^  c #396B64",
"/  c #366768",
"(  c #3B6D69",
")  c #3E7464",
"_  c #434D4B",
"`  c #44504C",
"'  c #4C544F",
"]  c #4D594D",
"[  c #455C4C",
"{  c #51544D",
"}  c #50584D",
"|  c #415452",
" . c #4B5651",
".. c #495854",
"X. c #4A6351",
"o. c #417951",
"O. c #407059",
"+. c #427A5D",
"@. c #5D765D",
"#. c #484863",
"$. c #4D4D6A",
"%. c #565678",
"&. c #4D6964",
"*. c #437160",
"=. c #427962",
"-. c #487F60",
";. c #467D6A",
":. c #487969",
">. c #43766B",
",. c #587E7E",
"<. c #616176",
"1. c #52854F",
"2. c #468156",
"3. c #498552",
"4. c #4D8D53",
"5. c #4C845F",
"6. c #4D8C5C",
"7. c #528B50",
"8. c #5F895B",
"9. c #529550",
"0. c #54945F",
"q. c #5D9B5B",
"w. c #5CA05B",
"e. c #4B8565",
"r. c #4E8A66",
"t. c #59966E",
"y. c #4C8170",
"u. c #548E70",
"i. c #6C9E76",
"p. c #61A761",
"a. c #63A868",
"s. c #65A775",
"d. c #67A67F",
"f. c #6AA27E",
"g. c #7BC67D",
"h. c #6FAE80",
"j. c #7BA981",
"k. c #70B485",
"l. c #77BE82",
"z. c #7EC980",
"x. c #81BB8C",
"c. c #8BA89C",
"v. c #86B192",
"b. c #9DBA92",
"n. c #82CD87",
"m. c #89C193",
"M. c #8FDE96",
"N. c #92D694",
"B. c #96E49A",
"V. c #9CE39E",
"C. c #B7D4A9",
"Z. c #B9DAAD",
"A. c #9EE4A1",
"S. c #A6E9A6",
"D. c #B8EBB2",
"F. c #D7D8CB",
"G. c #D5E6C4",
"H. c #DAF0CB",
"J. c #F3EEDA",
"K. c #E6F2D3",
"L. c #ECF2D7",
"P. c #EFF3D9",
"I. c #F8F1DE",
"U. c #FEF5E3",
/* pixels */
"  >   + + + + + O # # # # # $ $ $ $ $ $ $ $ $ # # # # # # # # # ",
"  . o + + o > o # # & # # < 3 < < < < < < < f < < ; $ # # # # # ",
"  X > 2 + o + # # # 5 5 , , 5 6 6 5 , , g , , 1 < < , , < # $ # ",
"  + 2 u + o # & & * 5 5 5 5 7 d d 0 6 6 p e 7 7 0 0 8 6 , < # # ",
"o + + o o # # * 5 5 7 6 e s x c c d x x c c c c x v 7 6 5 , < $ ",
"+ + + + & u & , e 5 7 6 9 s c c c c c c c c c m c v w 7 6 , < $ ",
"o + + # # : & 5 7 6 e 7 6 e x c c c c c G c c c c b b p , , < < ",
"+ + # # , 5 5 5 7 S W W x e x x c c c c c c c c c c p 5 , , < < ",
"# # # ; 1 w d w d Q / / R m x x J c e d c m c c x b p 5 5 5 < < ",
"# # # # & d Q W ^ Q >.Q ) r.=.T Q J c d e t c c x q 5 5 5 , < < ",
"# $.# & 5 x Q / / ,.c.>.^ Q ;.( / J c c 9 e x x w < 3 < , 3 < < ",
"# < & < 7 d W / Q F.U.U.Z.x.w.p.Y m F c 6 5 s c w , < < < < < < ",
"# ; , 5 w c Q Q v.J.L.K.H.A.z.q.d.J c x e 9 5 e p 8 , , , , 5 $ ",
"$ < 5 6 7 x Q ~ f.S.N.h.u.t.6.t.S.C.O.v 7 5 e c d p 6 8 6 5 , $ ",
"; 4 1 5 6 6 d o.m.B.e.x s D ;.S.P.J.&.c e 5 s D M b h w 6 5 # # ",
"< < < 5 6 7 c 0.g.@.y w p I n.D.U.b.A b e 6 e _ ' M c 8 < & & # ",
"< < < 5 6 7 G ^ 9.N w 9 x 4.B.S.G.8.M c k Z _ {  ._ a < < # # #.",
"< < < l 5 6 K ~ 4.y 5 w c 0.B.V.j.M x 6 _ {  .^ / d 7 & 1 & # 2 ",
"< < 3 7 5 e Q ^ O.t w 5 6 -.B.h.c c e 7 V ..Q / / S 6 5 5 , # # ",
"< < < 6 7 c ^ r.U s e 5 6 S s.i.b b b s a P Q L v x 5 5 5 5 & # ",
"< < < 5 e m / e.o.s t 9 w a ~ E M ` ] [ t m Q s 6 5 6 6 5 5 & # ",
"< < f , 0 e p i 0 5 1 8 0 N Q L C { 7.a.5.G ) K e 5 5 5 5 5 # + ",
"< < 4 < < < < < < 5 5 9 w _ ~ c n } q.M.k.l.:.Q a * 5 6 5 * o + ",
"< < < < < < 1 < < 5 5 N 9 B  .| c A 7.;.>.:.Q W p , 5 5 5 5 % o ",
"< < < < 4 %.< < i w 5 5 9 w k C v ` 1.+.( / G 9 * * 5 5 5 % O u ",
"< < < < < < < < , 5 5 5 5 6 e d b X.3.T W J w 5 * 5 5 5 * O + + ",
"< < < < < < < $ ; & 5 6 s p c v M n d 5 w 5 6 5 % 5 5 * O + + + ",
"< < < < $ $ & $ # # 1 9 s d c s w 5 6 , w 5 6 5 & * * O : O o   ",
"# # # # 2 # # # # O z 0 5 5 5 5 5 5 * % + - 5 % = % O o - +     ",
"# # # # # # # # o + + & + + : * , % O @ + + + + . X .   .       ",
"# # # # + + o o + + + + + + + + + + + o >                       ",
"+ o + + + + + o + o o o + o o o . X     <.@                     "
};
