/* XPM */
static char *result[] = {
/* columns rows colors chars-per-pixel */
"32 32 187 2 ",
"   c #05050F",
".  c #10101B",
"X  c #616176",
"o  c #050510",
"O  c #070714",
"+  c #070715",
"@  c #080817",
"#  c #090919",
"$  c #09091A",
"%  c #1B1B2B",
"&  c #080816",
"*  c #09091B",
"=  c #0A0A1D",
"-  c #0B0B1F",
";  c #0C0C22",
":  c #0C0C23",
">  c #060611",
",  c #060612",
"<  c #1A1A2B",
"1  c #0C0C1E",
"2  c #0B0B21",
"3  c #0D0D25",
"4  c #0D0D26",
"5  c #141421",
"6  c #080818",
"7  c #121223",
"8  c #45455E",
"9  c #3F3F58",
"0  c #1E1E36",
"q  c #0E0E28",
"w  c #0E0E29",
"e  c #161627",
"r  c #0A0A1C",
"t  c #171730",
"y  c #171731",
"u  c #0D0D27",
"i  c #0E0E2A",
"p  c #0F0F2C",
"a  c #10102F",
"s  c #111130",
"d  c #111131",
"f  c #0C0C24",
"g  c #10102D",
"h  c #0F0F2B",
"j  c #232334",
"k  c #1A1A35",
"l  c #363654",
"z  c #565678",
"x  c #181838",
"c  c #14142D",
"v  c #464663",
"b  c #181623",
"n  c #272323",
"m  c #B59D0D",
"M  c #DCBE08",
"N  c #E0C208",
"B  c #D1B609",
"V  c #352F24",
"C  c #1E1C27",
"Z  c #10102B",
"A  c #121231",
"S  c #191939",
"D  c #15152E",
"F  c #0B0B22",
"G  c #272224",
"H  c #9B891B",
"J  c #EDD517",
"K  c #E3E03A",
"L  c #E7E944",
"P  c #DBDC42",
"I  c #CCCE40",
"U  c #E7E841",
"Y  c #EDD71B",
"T  c #BBA71C",
"R  c #3A3325",
"E  c #11112E",
"W  c #141434",
"Q  c #141436",
"!  c #222241",
"~  c #191727",
"^  c #ECE230",
"/  c #ECEE45",
"(  c #E3E542",
")  c #DADC42",
"_  c #797935",
"`  c #8E8E37",
"'  c #E8E237",
"]  c #B7A51D",
"[  c #3F382C",
"{  c #17173C",
"}  c #151538",
"|  c #282426",
" . c #DEE042",
".. c #686831",
"X. c #4D4C2E",
"o. c #D0D141",
"O. c #ECDD26",
"+. c #75651F",
"@. c #131334",
"#. c #10102E",
"$. c #62622F",
"%. c #2C2B28",
"&. c #5E5E2F",
"*. c #DFE141",
"=. c #E3E23D",
"-. c #CEBC1D",
";. c #151537",
":. c #525272",
">. c #2B2A28",
",. c #3C3C2B",
"<. c #BABC3D",
"1. c #CACC40",
"2. c #C7C83E",
"3. c #CECF40",
"4. c #E2E442",
"5. c #E8D51E",
"6. c #3C3C5C",
"7. c #151534",
"8. c #484863",
"9. c #292829",
"0. c #282728",
"q. c #282828",
"w. c #39382B",
"e. c #B3B43C",
"r. c #CFD141",
"t. c #EDD91F",
"y. c #2A2A48",
"u. c #47462D",
"i. c #4A4A2D",
"p. c #B7B93D",
"a. c #626289",
"s. c #16163A",
"d. c #121232",
"f. c #B5B63D",
"g. c #999A37",
"h. c #9C9D39",
"j. c #9FA03A",
"k. c #54542E",
"l. c #36352A",
"z. c #B2B33C",
"x. c #1A1A39",
"c. c #9E9F39",
"v. c #3A3A2A",
"b. c #37362A",
"n. c #B1B23C",
"m. c #E7E842",
"M. c #E2CF1E",
"N. c #1B1B3B",
"B. c #39332C",
"V. c #E6E844",
"C. c #7C7D35",
"Z. c #EAEC45",
"A. c #ECDE29",
"S. c #7E6D1E",
"D. c #232130",
"F. c #B9A51B",
"G. c #B7B83D",
"H. c #4C4B2D",
"J. c #E3E13B",
"K. c #C8B721",
"L. c #514620",
"P. c #14142E",
"I. c #141435",
"U. c #3D372D",
"Y. c #B8A61F",
"T. c #554A20",
"R. c #4D4D6A",
"E. c #40392D",
"W. c #7D6D1D",
"Q. c #504520",
"!. c #21213C",
"~. c #5D5D7F",
"^. c #17173B",
"/. c #0F0F2D",
"(. c #131333",
"). c #16163B",
"_. c #46466A",
"`. c #3C3C61",
"'. c #151539",
"]. c #2B2B48",
"[. c #232341",
"{. c #1D1D41",
"}. c #0F0F2A",
"|. c #222236",
" X c #1E1E32",
".X c #1B1B2E",
"XX c #1F1F2B",
/* pixels */
"                    . X   o O O + @ @ @ @ @ # $ $ $ $ $ $ $ $ $ ",
"                    o % & $ $ $ $ $ $ $ $ $ $ $ $ $ * = - ; : : ",
"            > , O @ # $ $ $ $ $ $ < $ $ 1 1 $ $ = 2 3 4 4 4 4 4 ",
"    > 5 6 # $ 7 $ $ $ $ $ $ $ $ $ $ $ $ 8 9 - ; 4 4 4 0 4 4 q w ",
"o @ $ e $ $ $ 7 $ $ $ $ $ $ $ $ * r r 2 t y 4 4 4 u i p a s d d ",
"6 $ $ $ $ $ $ $ $ $ $ $ = - ; f 4 4 4 4 4 u i g a d d d d d d d ",
"$ $ $ $ $ $ $ $ $ = 2 f 0 4 4 4 0 4 4 w h a d d d d d d d d d d ",
"j $ $ $ $ $ * - 4 4 k 4 4 4 4 4 q p s d d d d l d d z x d d d d ",
"$ $ $ $ = ; 4 4 4 c v 4 4 4 i s d d d d d d d d d d d d d d d d ",
"$ * - f 4 4 4 4 4 - 2 b n m M N N M B V C Z Z A A A A A A S d d ",
"* : 4 0 4 4 4 D 4 F G H J K L P I L U Y T R E W Q A A A A ! d d ",
"f 4 4 4 4 4 4 D q ~ H ^ / ( ) _ ` L L / ' ] [ { { } A A A A d d ",
"4 4 4 4 4 4 4 w d | J / /  ...X.o.L L / L O.+.{ { { @.A A A d d ",
"4 4 4 4 4 u #.d d m K (  .$.%.&.( *.*.( *.=.-.{ { { ;.A :.x d d ",
"k 4 4 4 q a d d d M L ) ..>.,.<.1.2.2.3.4.L 5.{ { { ;.A 6.7.d d ",
"8.4 4 i s d d d d N P _ 9.0.q.9.9.q.q.w.e.r.t.{ { { @.A A A d d ",
"4 4 i d d y.d d d N I ` u.0.q.9.9.q.q.9.i.p.t.a.{ s.d.A A d d d ",
"4 q s d d d d d A M L L f.g.h.j.j.k.0.l.z.L 5.{ s.d.A A d ! S g ",
"u #.d d d d d A x.B U L L *.( L c.v.b.n.4.m.M.s.d.A x.x.d d d w ",
"h d d d d d A A N.B.Y / / ( L V.C.l.n.Z.L A.S.d.A A d d d d p 4 ",
"d d d d d A A A { D.F.' L *.( G.H.z.4.L J.K.L.A d d d d d p P.4 ",
"d d ! d A A A A { I.U.Y.O.=.L r.p.L m.A.K.T.E d d d d s w 4 R.4 ",
"d d d d d A A A } I.} E.+.-.5.t.t.5.M.W.Q.E !.d d d a u 4 4 4 4 ",
"d d d d d A ~.A A ^.{ { { { { { { { Q A A A A d d /.4 D D 4 4 - ",
"d d d d d d A A A (.).{ _.`.{ { '.(.A A ].A A d w 4 4 4 4 4 - $ ",
"d d d d d d d A A [.(.'.{.{.'.I.A A A A A A d i 4 4 D 4 ; * $ $ ",
"#.d d d d d d d d A A A A A x.A A ! A A A d }.4 4 4 0 : $ $ $ $ ",
"u a d d d d d y.d d A A A A x.A d d d d d g 4 4 4 4 : $ $ $ $ 6 ",
"4 u a d d d d d d d d d d d d d d d d d a u 4 4 4 ; $ $ |. X$ o ",
"4 4 u /.d d d d d d d y.d d d d d z d d q 0 4 4 ; $ $ $  X.XO   ",
"4 4 4 4 q h g s d ! d d d d d d d x #.w 4 D 4 : $ < $ $ $ @ o   ",
"4 4 4 4 4 4 4 4 4 w h h h h h h h u 4 4 4 4 : $ $ $ $ $ 6 o XX  "
};
