/* XPM */
static char *result[] = {
/* columns rows colors chars-per-pixel */
"32 32 66 1 ",
"  c #05050F",
". c #10101B",
"X c #616176",
"o c #050510",
"O c #070714",
"+ c #070715",
"@ c #080817",
"# c #090919",
"$ c #09091A",
"% c #1B1B2B",
"& c #080816",
"* c #09091B",
"= c #0A0A1D",
"- c #0B0B1F",
"; c #0C0C22",
": c #0C0C23",
"> c #060611",
", c #060612",
"< c #1A1A2B",
"1 c #0C0C1E",
"2 c #0B0B21",
"3 c #0D0D25",
"4 c #0D0D26",
"5 c #141421",
"6 c #080818",
"7 c #121223",
"8 c #45455E",
"9 c #3F3F58",
"0 c #1E1E36",
"q c #0E0E28",
"w c #0E0E29",
"e c #161627",
"r c #6B7EE6",
"t c #171730",
"y c #171731",
"u c #0D0D27",
"i c #0E0E2A",
"p c #0F0F2C",
"a c #10102F",
"s c #111130",
"d c #111131",
"f c #10102D",
"g c #42B12F",
"h c #232334",
"j c #565678",
"k c #181838",
"l c #4256C2",
"z c #0C0C24",
"x c #121231",
"c c #191939",
"v c #222241",
"b c #449037",
"n c #1A1A35",
"m c #151534",
"M c #484863",
"N c #10102E",
"B c #0F0F2B",
"V c #14142E",
"C c #4D4D6A",
"Z c #15152E",
"A c #2A2A48",
"S c #222236",
"D c #1E1E32",
"F c #0F0F2D",
"G c #1B1B2E",
"H c #1F1F2B",
/* pixels */
"          .X oOO+@@@@@#$$$$$$$$$",
"          o%&$$$$$$$$$$$$$*=-;::",
"      >,O@#$$$$$$<$$11$$=2344444",
"  >56#$7$$$$$$$$$$$$89-;444044qw",
"o@$e$$$7$$$$$rrrrrrrty444uipasdd",
"6$$$$$$$$$$rrrrrrrrrrrifaddddddd",
"$$$$$$$$$rrrrrrgrrrrrrrrdddddddd",
"h$$$$$*-rrrrrrgggggrrrrrrdjkdddd",
"$$$$=;4rrrrrrggggggrrrrrrldddddd",
"$*-z44rrrggrrgggrrrrrrrllllxxcdd",
"*:4044rrrggrrrggrrrrrllllllxxvdd",
"z4444rrrrrrrrrrrrrrllllllllbxxdd",
"44444rrrrrrrrrrrrlllllllllbbxxdd",
"4444rrrrggrrrrrrllllllllllbbbkdd",
"n444rrrrrgggrrrllllllllllbbblmdd",
"M44irrrrrrggrrlllllllllllblllxdd",
"44idrrrrrrrgrrlllllllllllblllddd",
"4qsdrrrggrrrrlllllllllllbllllvcf",
"uNddrrgggrrrrllllllllllllllllddw",
"Bdddrrrgrrrrlllllbbbllllllllldp4",
"dddddrrrrrrrlllllbbblllllllldpV4",
"ddvdxrrrrrrlllllllbbllllllllw4C4",
"dddddxrrrrrllllllbbblllllllu4444",
"dddddxrrrrrllllbbbbllllllblZZ44-",
"ddddddxrrrrllllbbblllllbbb4444-$",
"dddddddxrrrlllbbbllllllbb4Z4;*$$",
"Nddddddddrrllbbbbllllllb440:$$$$",
"uadddddAddxllbbbblllll4444:$$$$6",
"4uaddddddddddbblllllau444;$$SD$o",
"44uFdddddddAdddddjddq044;$$$DGO ",
"4444qBfsdvdddddddkNw4Z4:$<$$$@o ",
"444444444wBBBBBBBu4444:$$$$$6oH "
};
