/* XPM */
static char *result[] = {
/* columns rows colors chars-per-pixel */
"32 32 84 1 ",
"  c #05050F",
". c #1F1F2B",
"X c #050510",
"o c #080818",
"O c #09091A",
"+ c #0C0C23",
"@ c #0D0D26",
"# c #0D0D27",
"$ c #0F0F2B",
"% c #0E0E29",
"& c #080817",
"* c #1A1A2B",
"= c gray10",
"- c #111131",
"; c #222241",
": c #111130",
"> c #10102D",
", c #0E0E28",
"< c #070714",
"1 c #1B1B2E",
"2 c #1E1E32",
"3 c #0D2D37",
"4 c #0D555E",
"5 c #187E87",
"6 c #0F0F2D",
"7 c #222236",
"8 c #0C0C22",
"9 c #2E3715",
"0 c #414D1F",
"q c #757D2E",
"w c #1E1E36",
"e c #0F0F2A",
"r c #121231",
"t c #10102E",
"y c #09091B",
"u c #15152E",
"i c #0E0E2A",
"p c #0B0B1F",
"a c #CDFF09",
"s c #B1DE00",
"d c #95B902",
"f c #5D5D7F",
"g c #10102F",
"h c #151538",
"j c #4D4D6A",
"k c #19ABB8",
"l c #14142E",
"z c #0F0F2C",
"x c #131332",
"c c #16163A",
"v c #17173C",
"b c #12808A",
"n c #0F555D",
"m c #121232",
"M c gray3",
"N c #1A1A39",
"B c #191939",
"V c #647932",
"C c #CECECE",
"Z c #484863",
"A c #151534",
"S c #3C3C5C",
"D c #151537",
"F c #1A1A35",
"G c #181838",
"H c #525272",
"J c #131334",
"K c #0C0C24",
"L c #0A0A1D",
"P c #565678",
"I c #363654",
"U c #232334",
"Y c #121223",
"T c #090919",
"R c #141421",
"E c #060611",
"W c #0D0D25",
"Q c #0B0B21",
"! c #060612",
"~ c #080816",
"^ c #1B1B2B",
"/ c #070715",
"( c #616176",
") c #10101B",
/* pixels */
" .XoOOOOO+@@@@#$$$$$$$%@@@@@@@@@",
" X&OOO*O+=======------;-:>$,@@@@",
" <12OO===3333345=-===-------6#@@",
"XO27OO8@@=====345=990==========@",
"oOOOO+@@@@>---=345=900000000qq=#",
"OOOO+w@@@e-rrr;=33=9990000qq==-t",
"OOy8@u@@i-rrrr=======990qq==----",
"Op@@@@@=======aaaaass=9q==------",
"p@@uu@6=sssssssdddddd=9=rfr-----",
"@@@@#g-=ddddddd========hrrr-----",
"@j@%:--=====d==kkkkkkkk=rrrr-;--",
"@lz-----rxcv=kkbbbbbbbbn=rr-----",
"@z----rrmcv=kbbbbMMMMMbn=r-----$",
"%---NNr====3bbbMMMMMMMbn===---t#",
">B;-===kkkk3bbMMMMMMMMbn=9V=-:,@",
"--==nnnbbbb3bbMMMMMMMMbn=90=-i@@",
"--rr===nnnn3bbMMCCMMMMbn=90=i@@Z",
"--ASrDv====3bbbMMMCCMMbn===,@@@F",
"--GHrDvvvvv=nbbbbMMMMMbn=t#@@@@@",
"--rrrJvvvvvv=nnbbbbbbbbn=@@@@@@@",
"--rrrrh=====a==nnnnnnnn=u@@@@@@K",
"--;rrrr=sssssaa========@u@@@w@+y",
"--Brrrr=ddddddsssssss=9=@@@@KpyO",
"-------=======ddddddd=9q==8LOOOO",
"----GP--I----:=======990qq==OOOU",
"----------g$%@@=53=9990000qq===O",
"-------g>i#@@@=443=900000000qq=o",
"--:gzi#@@=====433=990=========&X",
"%,@@w@===333333==O===OOOYOToRE  ",
"@@@@@WQLO======OOOOOOT&<!E      ",
"++8pLyOOOOOOOOOOOOO~^X          ",
"OOOOOOOOOT&&&&&/<<X ()          "
};
