/* XPM */
static char *result[] = {
/* columns rows colors chars-per-pixel */
"32 32 87 1 ",
"  c #05050F",
". c #1F1F2B",
"X c #050510",
"o c #080818",
"O c #09091A",
"+ c #0C0C23",
"@ c #0D0D26",
"# c #0D0D27",
"$ c #0F0F2B",
"% c #0E0E29",
"& c #080817",
"* c #1A1A2B",
"= c #15152E",
"- c #10102E",
"; c #181838",
": c #111131",
"> c gray10",
", c #111130",
"< c #10102D",
"1 c #0E0E28",
"2 c #070714",
"3 c #1B1B2E",
"4 c #1E1E32",
"5 c #0C0C22",
"6 c #1E1E36",
"7 c #0D2D37",
"8 c #0F0F2D",
"9 c #414D1F",
"0 c #2E3715",
"q c #0D555E",
"w c #10102F",
"e c #757D2E",
"r c #121231",
"t c #2A2A48",
"y c #187E87",
"u c #09091B",
"i c #1D1D41",
"p c #151539",
"a c #131333",
"s c #232341",
"d c #0B0B1F",
"f c #95B902",
"g c #B1DE00",
"h c #CDFF09",
"j c #4D4D6A",
"k c #0F555D",
"l c #222241",
"z c #14142E",
"x c #0F0F2C",
"c c #12808A",
"v c #17173C",
"b c gray3",
"n c #1B1B3B",
"m c #1A1A39",
"M c #CECECE",
"N c #191939",
"B c #647932",
"V c #19ABB8",
"C c #484863",
"Z c #151534",
"A c #3C3C5C",
"S c #151537",
"D c #1A1A35",
"F c #525272",
"G c #131334",
"H c #151538",
"J c #0C0C24",
"K c #141436",
"L c #141434",
"P c #0A0A1D",
"I c #232334",
"U c #0B0B21",
"Y c #121223",
"T c #161627",
"R c #3F3F58",
"E c #45455E",
"W c #141421",
"Q c #060611",
"! c #0D0D25",
"~ c #0C0C1E",
"^ c #060612",
"/ c #080816",
"( c #1B1B2B",
") c #090919",
"_ c #070715",
"` c #616176",
"' c #10101B",
/* pixels */
" .XoOOOOO+@@@@#$$$$$$$%@@@@@@@@@",
" X&OOO*O+@=@%-;:::>>>>>>,<$1@@@@",
" 234OOO5@@61>>>:>>777777>>>:8#@@",
"XO4>>>>>>>>>900>77q>>>>>:::::w#@",
"oO>ee999999990>7qq>rrr::t:::::w#",
"OO>>>ee9999000>7y>rrrrr::::::::-",
"OOu5@>>ee900>>>>>>>ipasrr:::::::",
"Od@@@@@>>e0>fffffff>>>>>>>::::::",
"d@@==@8::>0>gggggggffffff>r:::::",
"@@@@#w:::s>>>>>>>>hhggggg>r:::::",
"@j@%,::::>kkkkkkkk>>h>>>>>rr:l::",
"@zx:::::>kcccccccckk>vvvrrr:::::",
"@x::::rr>kcbbbbbcccck>vnrr:::::$",
"%:::mm>>>kcbbMMbbbccc7>>>>::::-#",
"<Nl:r>90>kcbbbbMMbbcc7kkkk>>>,1@",
":::rr>90>kcbbbbbbbbcc7cccckkk>>@",
"::rrr>B0>kcbbbbbbbbcc7VVVV>>>@@C",
"::ZArS>>>kcbbbbbbbccc7>>>>w1@@@D",
"::;FrSvv>kcbbbbbccccV>:::-#@@@@@",
"::rrrGvv>kccccccccVV>:::%@@@@@@@",
"::rrrrHvv>VVVVVVVV>>f>>>>>@@@@@J",
"::lrrrrKLr>>>>>>>>fffffff>@@6@+u",
"::Nrrrrrr>0>ffffffggggggg>@@JduO",
":::::::>>e0>gghhhhh>>>>>>>5POOOO",
"::::;>>ee900>>>>>>>@@D@@duOOOOOI",
":::>>ee9999000>77>@6JUPOOOOOOOOO",
"::>ee999999990>yq7>POOOOOOOOOOOo",
"::>>>>>>>>>>900>yq7>>>>>YOOOTO&X",
"%1@@6@@@5dRE>>>O>yq77777>>>oWQ  ",
"@@@@@!UPOO~~OO*OO>>>>>>>^Q      ",
"++5dPuOOOOOOOOOOOOO/(X          ",
"OOOOOOOOO)&&&&&_22X `'          "
};
