/* XPM */
static char *result[] = {
/* columns rows colors chars-per-pixel */
"32 32 86 1 ",
"  c #05050F",
". c #1F1F2B",
"X c #050510",
"o c #080818",
"O c #09091A",
"+ c #0C0C23",
"@ c #0D0D26",
"# c #0D0D27",
"$ c #0F0F2B",
"% c #0E0E29",
"& c #080817",
"* c #1A1A2B",
"= c #15152E",
"- c #10102E",
"; c #181838",
": c #111131",
"> c gray10",
", c #222241",
"< c #111130",
"1 c #10102D",
"2 c #0E0E28",
"3 c #070714",
"4 c #1B1B2E",
"5 c #1E1E32",
"6 c #0C0C22",
"7 c #1E1E36",
"8 c #565678",
"9 c #2A2A48",
"0 c #0F0F2D",
"q c #222236",
"w c #10102F",
"e c #0F555D",
"r c #121231",
"t c #0F0F2A",
"y c #09091B",
"u c #12808A",
"i c #19ABB8",
"p c #1D1D41",
"a c #151539",
"s c #0B0B1F",
"d c #95B902",
"f c #B1DE00",
"g c #46466A",
"h c #17173C",
"j c #0D2D37",
"k c #141436",
"l c #5D5D7F",
"z c #151538",
"x c #4D4D6A",
"c c #14142E",
"v c #CDFF09",
"b c #0F0F2C",
"n c #0D555E",
"m c gray3",
"M c #191939",
"N c #187E87",
"B c #CECECE",
"V c #484863",
"C c #151534",
"Z c #2E3715",
"A c #1A1A35",
"S c #414D1F",
"D c #0C0C24",
"F c #757D2E",
"G c #464663",
"H c #14142D",
"J c #232334",
"K c #647932",
"L c #0B0B21",
"P c #0A0A1D",
"I c #0E0E2A",
"U c #171731",
"Y c #171730",
"T c #0A0A1C",
"R c #121223",
"E c #3F3F58",
"W c #45455E",
"Q c #060611",
"! c #0C0C1E",
"~ c #090919",
"^ c #060612",
"/ c #080816",
"( c #1B1B2B",
") c #070715",
"_ c #616176",
"` c #10101B",
/* pixels */
" .XoOOOOO+@@@@#$$$$$$$%@@@@@@@@@",
" X&OOO*O+@=@%-;:>:::::,:<1$2@@@@",
" 345OOO6@@72::8:>:::9:::::::0#@@",
"XO5qOO6@@@#w:::>e>:::::::::::w#@",
"oOOOO+@@@@1::::>e>rrrr::9:::::w#",
"OOO>+7@@@t:rrr,>e>rrrrr::::::>:-",
"OOy>@=@@>>>>rr>eui>pa>>>>::::>::",
"Os@>@@@%>df>rr>eui>gh>df>r:::>::",
"s@>j>@0:>df>rk>eui>hh>df>lr:>j>:",
"@@>j>w::>df>zh>eui>hh>df>rr:>j>:",
"@x>j>:::>df>h>jjjjj>h>df>rrr>j>:",
"@c>j>:::>dfv>euuuuui>ddf>rr:>j>:",
"@b>j>:rr>dv>euuuuuuui>df>r::>j>$",
"%:>jn>r>dfv>euummmuui>dfv>:>jn>#",
"1M,>jn>>df>euummmmmuui>dv>>jnN>@",
":::>jnN>df>euumBmmmuui>dv>jnN>@@",
"::rr>jj>df>eummBmmmmui>dv>jN>@@V",
"::C>Z>>>df>eumBmmmmmui>dv>>>Z>@A",
"::;>ZZZ>df>eumBmmmmmui>df>ZZZ>@@",
"::r>SSZ>df>eummmmmmmui>df>ZSS>@@",
"::rr>SZZ>>>eummmmmmmui>>>ZZS>@@D",
"::,r>SSZZZ>euuuuuuuuui>ZZZSS>@+y",
"::Mr>SSSF>r>eeeeeeeee>@>FSSS>syO",
"::::>SSF>:::>>>>>>>>>GH@>FSS>OOO",
"::::>SSF>::::<>ZZZ>@@A@@>FSS>OOJ",
"::::>SF>::w$%@>SSK>7DLPOO>FS>OOO",
"::::>SF>1I#@@@@>>>sPOOOOO>FS>OOo",
"::<w>F>@@@UYLTTyOOOOOOOORO>F>O&X",
"%2@@>F>@6sEWOOOOOOOOOOOORO>F>Q  ",
"@@@@@>>POO!!OO*OOOOOO~&3^Q >>   ",
"++6sPyOOOOOOOOOOOOO/(X          ",
"OOOOOOOOO~&&&&&)33X _`          "
};
