/* XPM */
static char *result[] = {
/* columns rows colors chars-per-pixel */
"32 32 197 2 ",
"   c #05050F",
".  c #10101B",
"X  c #616176",
"o  c #050510",
"O  c #070714",
"+  c #992D2F",
"@  c #080817",
"#  c #090919",
"$  c #09091A",
"%  c #1B1B2B",
"&  c #080816",
"*  c #A93132",
"=  c #09091B",
"-  c #0A0A1D",
";  c #0B0B1F",
":  c #0C0C22",
">  c #0C0C23",
",  c #060611",
"<  c #060612",
"1  c #632027",
"2  c #2B121F",
"3  c #A33031",
"4  c #BE5832",
"5  c #DD9C33",
"6  c #2D1422",
"7  c #642129",
"8  c #0B0B21",
"9  c #0D0D25",
"0  c #0D0D26",
"q  c #141421",
"w  c #080818",
"e  c #121223",
"r  c #AB3232",
"t  c #EAB533",
"y  c #F8E836",
"u  c #7E3B45",
"i  c #1E1E36",
"p  c #0E0E28",
"a  c #0E0E29",
"s  c #161627",
"d  c #B34F31",
"f  c #E5A432",
"g  c #CB7132",
"h  c #491923",
"j  c #79252B",
"k  c #E8BA34",
"l  c #79262B",
"z  c #4B1B28",
"x  c #2D1528",
"c  c #0D0D27",
"v  c #0E0E2A",
"b  c #0F0F2C",
"n  c #10102F",
"m  c #111130",
"M  c #111131",
"N  c #D27E32",
"B  c #F3D735",
"V  c #992E30",
"C  c #2D1426",
"Z  c #7A4B2C",
"A  c #7B4C2D",
"S  c #992E31",
"D  c #662330",
"F  c #CD9330",
"G  c #AA5030",
"H  c #442622",
"J  c #9F501E",
"K  c #AB5031",
"L  c #CD9432",
"P  c #7B2831",
"I  c #232334",
"U  c #87441E",
"Y  c #884620",
"T  c #964C20",
"R  c #B05920",
"E  c #964D21",
"W  c #87451F",
"Q  c #5C3F3E",
"!  c #565678",
"~  c #181838",
"^  c #673723",
"/  c #994D1D",
"(  c #9E5121",
")  c #9E5122",
"_  c #693927",
"`  c #0C0C24",
"'  c #AA561F",
"]  c #915A38",
"[  c #A4643A",
"{  c #6A3A27",
"}  c #121231",
"|  c #191939",
" . c #15152E",
".. c gray55",
"X. c #A66C46",
"o. c #6B3A29",
"O. c #141436",
"+. c #222241",
"@. c #794026",
"#. c #CF6924",
"$. c #929292",
"%. c #AC724C",
"&. c #BA5E21",
"*. c #7D442F",
"=. c #17173C",
"-. c #151538",
";. c #83462B",
":. c #DE7126",
">. c #D46C25",
",. c #B55C21",
"<. c #A5A5A5",
"1. c #B7784E",
"2. c #854930",
"3. c #131334",
"4. c #10102E",
"5. c #CB8250",
"6. c #151537",
"7. c #525272",
"8. c #1A1A35",
"9. c #62372D",
"0. c #DC7027",
"q. c #C59473",
"w. c #D88348",
"e. c #DC7026",
"r. c #663B33",
"t. c #3C3C5C",
"y. c #151534",
"u. c #484863",
"i. c #C9692A",
"p. c gray67",
"a. c gray",
"s. c #CBA68D",
"d. c #C86728",
"f. c #2A2A48",
"g. c #B8947B",
"h. c #AEAEAE",
"j. c #C1C1C1",
"k. c #D48C5A",
"l. c #626289",
"z. c #16163A",
"x. c #121232",
"c. c #84472C",
"v. c #A5978F",
"b. c #BBBBBB",
"n. c #10102D",
"m. c #1A1A39",
"M. c #17173B",
"N. c #9D9DA1",
"B. c #0F0F2B",
"V. c #1B1B3B",
"C. c #AEAEB2",
"Z. c #8C8C98",
"A. c #8EAECD",
"S. c #669ED6",
"D. c #659BD1",
"F. c #8DA8C3",
"G. c #131332",
"H. c #14142E",
"J. c #A2B8CD",
"K. c #97ACC1",
"L. c #161639",
"P. c #4D4D6A",
"I. c #92B3D3",
"U. c #B9CCDF",
"Y. c #83A4C5",
"T. c #232341",
"R. c #5D5D7F",
"E. c #A0A0A7",
"W. c #84AACF",
"Q. c #9E9EA5",
"!. c #0F0F2D",
"~. c #131333",
"^. c #16163B",
"/. c #8A8A9A",
"(. c #A2BDD8",
"). c #89B2DB",
"_. c #7AA6D1",
"`. c #737381",
"'. c #2B2B48",
"]. c #151539",
"[. c #787888",
"{. c #B9BFC4",
"}. c #AABACA",
"|. c #A3B5C8",
" X c #B7BDC3",
".X c #AEAEB1",
"XX c #0F0F2A",
"oX c #57576A",
"OX c #222236",
"+X c #1E1E32",
"@X c #ACACB3",
"#X c #1B1B2E",
"$X c gray75",
"%X c #5B5B6F",
"&X c #1A1A2B",
"*X c #ADADB0",
"=X c #1F1F2B",
/* pixels */
"                    . X   o O + + @ @ @ @ @ # $ $ $ $ $ $ $ $ $ ",
"                    o % & $ + * * + $ $ $ $ $ $ $ $ = - ; : > > ",
"            , < O @ 1 2 2 3 4 5 5 4 3 2 6 7 $ $ - 8 9 0 0 0 0 0 ",
"    , q w # $ e $ $ r 1 1 r t y y t r 1 u r ; : 0 0 0 i 0 0 p a ",
"o @ $ s $ $ $ e 2 d f g h j d k k d l z g f d x 0 c v b n m M M ",
"w $ $ $ $ $ $ $ 1 N B t V ; C Z A x 0 S t B N D n M M M M M M M ",
"$ $ $ $ $ $ $ $ $ l F G i H J J J J H a K L P M M M M M M M M M ",
"I $ $ $ $ $ = ; H U Y U 0 T R R R R E M W W W Q M M ! ~ M M M M ",
"$ $ $ $ - : 0 0 ^ R J / U ( R R R R ) W / J R _ M M M M M M M M ",
"$ = ; ` 0 0 0 0 ^ R R ' ] [ R R R R [ ] ' R R { } } } } } | M M ",
"= > 0 i 0 0 0  .^ R R R ..X.R R R R X...R R R o.O.} } } } +.M M ",
"` 0 0 0 0 0 0  .@.#.R R $.%.&.#.#.&.%.$.R R #.*.=.-.} } } } M M ",
"0 0 0 0 0 0 0 a ;.:.>.,.<.1.:.:.:.:.1.<.,.>.:.2.=.=.3.} } } M M ",
"0 0 0 0 0 c 4.M ;.:.:.>.<.5.:.:.:.:.5.<.>.:.:.2.=.=.6.} 7.~ M M ",
"8.0 0 0 p n M M 9.0.:.:.<.q.w.:.:.w.q.<.:.:.e.r.=.=.6.} t.y.M M ",
"u.0 0 v m M M M M i.:.:.p.a.s.:.:.s.a.p.:.:.d.=.=.=.3.} } } M M ",
"0 0 v M M f.M M M } :.g.h.j.j.k.k.j.j.h.g.:.=.l.=.z.x.} } M M M ",
"0 p m M M M M M } } c.v.b.j.j.k.k.j.j.b.v.2.=.=.z.x.} } M +.| n.",
"c 4.M M M M M } m.3.M.N.j.j.j.j.j.j.j.j.N.=.=.z.x.} m.m.M M M a ",
"B.M M M M M } } V.=.=.C.j.j.j.j.j.j.j.j.C.=.z.x.} } M M M M b 0 ",
"M M M M M } } } =.=.=.Z.j.j.A.S.D.F.j.j.Z.z.G.} M M M M M b H.0 ",
"M M +.M } } } } =.=.=.=.j.J.S.S.S.D.K.j.L.G.} M M M M m a 0 P.0 ",
"M M M M M } } } -.=.=.=.j.I.U.S.S.S.Y.j.} } T.M M M n c 0 0 0 0 ",
"M M M M M } R.} } M.=.=.E.I.U.S.S.S.W.Q.} } } M M !.0  . .0 0 ; ",
"M M M M M M } } } ~.^.=./.j.(.).S._.j.`.'.} } M a 0 0 0 0 0 ; $ ",
"M M M M M M M } } T.~.].[.j.{.}.|. Xj.`.} } M v 0 0  .0 : = $ $ ",
"4.M M M M M M M M } } } } .Xj.j.j.j..X} } M XX0 0 0 i > $ $ $ $ ",
"c n M M M M M f.M M } } } oXj.j.j.j.oXM M n.0 0 0 0 > $ $ $ $ w ",
"0 c n M M M M M M M M M M M j.j.j.j.M M n c 0 0 0 : $ $ OX+X$ o ",
"0 0 c !.M M M M M M M f.M M Q.j.j.@XM M p i 0 0 : $ $ $ +X#XO   ",
"0 0 0 0 p B.n.m M +.M M M M oX$X$X%X4.a 0  .0 > $ &X$ $ $ @ o   ",
"0 0 0 0 0 0 0 0 0 a B.B.B.B.B.*X*Xc 0 0 0 0 > $ $ $ $ $ w o =X  "
};
