/* XPM */
static char *result[] = {
/* columns rows colors chars-per-pixel */
"32 32 207 2 ",
"   c #05050F",
".  c #10101B",
"X  c #616176",
"o  c #050510",
"O  c #070714",
"+  c #070715",
"@  c #080817",
"#  c #090919",
"$  c #09091A",
"%  c #1B1B2B",
"&  c #080816",
"*  c #09091B",
"=  c #0A0A1D",
"-  c #0B0B1F",
";  c #0C0C22",
":  c #0C0C23",
">  c #060611",
",  c #060612",
"<  c #1A1A2B",
"1  c #0C0C1E",
"2  c #0B0B21",
"3  c #0D0D25",
"4  c #0D0D26",
"5  c #141421",
"6  c #080818",
"7  c #121223",
"8  c #45455E",
"9  c #3F3F58",
"0  c #1E1E36",
"q  c #0E0E28",
"w  c #0E0E29",
"e  c #161627",
"r  c #0A0A1C",
"t  c #171730",
"y  c #171731",
"u  c #0D0D27",
"i  c #0E0E2A",
"p  c #0F0F2C",
"a  c #10102F",
"s  c #111130",
"d  c #111131",
"f  c #0C0C24",
"g  c #10102D",
"h  c #0F0F2B",
"j  c #232334",
"k  c #1A1A35",
"l  c #363654",
"z  c #565678",
"x  c #181838",
"c  c #14142D",
"v  c #464663",
"b  c #3F262F",
"n  c #55312D",
"m  c #502E2D",
"M  c #46292B",
"N  c #2F1E2D",
"B  c #441C31",
"V  c #221531",
"C  c #0F0F2A",
"Z  c #9F572F",
"A  c #C76627",
"S  c #DE7126",
"D  c #CF6924",
"F  c #B05920",
"G  c #6A3824",
"H  c #562031",
"J  c #D27E32",
"K  c #964432",
"L  c #121231",
"P  c #191939",
"I  c #15152E",
"U  c #2A2A48",
"Y  c #D46C25",
"T  c #9F501E",
"R  c #6B3925",
"E  c #9F7332",
"W  c #F3D735",
"Q  c #E5A432",
"!  c #AB3232",
"~  c #50273C",
"^  c #5F5F71",
"/  c #868691",
"(  c #7A7A84",
")  c #8A7E7D",
"_  c #B8947B",
"`  c #B55C21",
"'  c #AA561F",
"]  c #994D1D",
"[  c #6C3A27",
"{  c #864234",
"}  c #EAB533",
"|  c #CB7132",
" . c #451D31",
".. c #231631",
"X. c #49495A",
"o. c #4A4A5C",
"O. c #737381",
"+. c #C1C1C1",
"@. c #BBBBBB",
"#. c #AEAEAE",
"$. c gray67",
"%. c #A5A5A5",
"&. c #929292",
"*. c gray55",
"=. c #855338",
"-. c #17173C",
";. c #782833",
":. c #341931",
">. c #353549",
",. c #85858E",
"<. c #92B3D3",
"1. c #A2B8CD",
"2. c gray",
"3. c #C59473",
"4. c #CB8250",
"5. c #B7784E",
"6. c #AC724C",
"7. c #A66C46",
"8. c #965C3A",
"9. c #7D4329",
"0. c #774029",
"q. c #332335",
"w. c #151537",
"e. c #8A2C33",
"r. c #71717C",
"t. c #B9BFC4",
"y. c #A2BDD8",
"u. c #B9CCDF",
"i. c #669ED6",
"p. c #8EAECD",
"a. c #CBA68D",
"s. c #D88348",
"d. c #BA5E21",
"f. c #251836",
"g. c #BE5832",
"h. c #782732",
"j. c #9999A2",
"k. c #ADADB0",
"l. c #AABACA",
"z. c #89B2DB",
"x. c #D48C5A",
"c. c #533733",
"v. c #E8BA34",
"b. c #F8E836",
"n. c #DD9C33",
"m. c #9A2E32",
"M. c #85858D",
"N. c #A3B5C8",
"B. c #659BD1",
"V. c #523632",
"C. c #36364A",
"Z. c #B7BDC3",
"A. c #7AA6D1",
"S. c #8DA8C3",
"D. c #7A2A34",
"F. c #10102E",
"G. c #383851",
"H. c #84AACF",
"J. c #83A4C5",
"K. c #97ACC1",
"L. c #753E25",
"P. c #301F2D",
"I. c #1A1A39",
"U. c #5A2536",
"Y. c #882B32",
"T. c #4C4C61",
"R. c #777786",
"E. c #331831",
"W. c #626277",
"Q. c #888895",
"!. c #7C7C88",
"~. c #8B8080",
"^. c #844032",
"/. c #20132D",
"(. c #14142E",
"). c #222241",
"_. c #593535",
"`. c #9E7332",
"'. c #42192A",
"]. c #4D4D6A",
"[. c #151538",
"{. c #9C532D",
"}. c #C86728",
"|. c #552031",
" X c #954330",
".X c #5D5D7F",
"XX c #17173B",
"oX c #432B37",
"OX c #573331",
"+X c #56322D",
"@X c #512F2D",
"#X c #472A2B",
"$X c #0F0F2D",
"%X c #25182E",
"&X c #131333",
"*X c #16163B",
"=X c #46466A",
"-X c #3C3C61",
";X c #151539",
":X c #2B2B48",
">X c #232341",
",X c #1D1D41",
"<X c #141435",
"1X c #222236",
"2X c #1E1E32",
"3X c #1B1B2E",
"4X c #1F1F2B",
/* pixels */
"                    . X   o O O + @ @ @ @ @ # $ $ $ $ $ $ $ $ $ ",
"                    o % & $ $ $ $ $ $ $ $ $ $ $ $ $ * = - ; : : ",
"            > , O @ # $ $ $ $ $ $ < $ $ 1 1 $ $ = 2 3 4 4 4 4 4 ",
"    > 5 6 # $ 7 $ $ $ $ $ $ $ $ $ $ $ $ 8 9 - ; 4 4 4 0 4 4 q w ",
"o @ $ e $ $ $ 7 $ $ $ $ $ $ $ $ * r r 2 t y 4 4 4 u i p a s d d ",
"6 $ $ $ $ $ $ $ $ $ $ $ = - ; f 4 4 4 4 4 u i g a d d d d d d d ",
"$ $ $ $ $ $ $ $ $ = 2 f 0 4 4 4 0 4 4 w h a d d d d d d d d d d ",
"j $ $ $ $ $ * - 4 4 k 4 4 4 4 4 q p s d d d d l d d z x d d d d ",
"$ $ $ $ = ; 4 4 4 c v 4 4 4 i s d b n n m M M M N d B V d d d d ",
"$ * - f 4 4 4 4 4 4 4 C g d d d Z A S S D F F F G H J K L P d d ",
"* : 4 0 4 4 4 I 4 u p d U d n S S S S Y F F F T R E W Q ! ~ d d ",
"f 4 4 4 4 4 4 I q a d ^ / ( ) _ S S Y ` F F ' ] [ { } |  ...d d ",
"4 4 4 4 4 4 X.o.O.+.+.+.+.+.@.#.$.%.%.%.&.*.=.[ -.-.;.:. ...d d ",
"4 4 4 4 >.,.+.+.<.<.1.+.+.+.+.+.2.3.4.5.6.7.8.9.0.q.w.H ! e.d d ",
"k >.r.+.+.+.t.y.u.u.i.p.+.+.+.+.a.s.S S d.F F F F T f.K } g.h.d ",
"j.k.+.+.+.+.l.z.i.i.i.i.+.+.x.x.S S S S D F F F F T c.v.b.n.m.h.",
"M.k.+.+.+.+.N.i.i.i.i.B.+.+.x.x.S S S S D F F F F T V.v.b.n.m.h.",
"4 C.O.+.+.+.Z.A.i.i.B.S.+.+.+.+.a.s.S S d.F F F F T ..K } g.D.g ",
"u F.d d G./ +.+.H.J.K.+.+.+.+.+.2.3.4.5.6.7.8.9.L.P.I.U.! Y.d w ",
"h d d d d d T.T.R.+.+.+.+.+.@.#.$.%.%.%.&.*.=.G L L h.E.B V p 4 ",
"d d d d d L L L -.-.-.W.Q.!.~._ S S Y ` F F ' ] G ^.} | B /.(.4 ",
"d d ).d L L L L -.-.-.-.-.-._.S S S S Y F F F T G `.W Q ! '.].4 ",
"d d d d d L L L [.-.-.-.-.-.-.-.{.}.S S D F F F G |.J  X4 4 4 4 ",
"d d d d d L .XL L XX-.-.-.-.-.-.-.oXOX+X@X#X#XM N $X'.%XI 4 4 - ",
"d d d d d d L L L &X*X-.=X-X-.-.;X&XL L :XL L d w 4 4 4 4 4 - $ ",
"d d d d d d d L L >X&X;X,X,X;X<XL L L L L L d i 4 4 I 4 ; * $ $ ",
"F.d d d d d d d d L L L L L I.L L ).L L L d C 4 4 4 0 : $ $ $ $ ",
"u a d d d d d U d d L L L L I.L d d d d d g 4 4 4 4 : $ $ $ $ 6 ",
"4 u a d d d d d d d d d d d d d d d d d a u 4 4 4 ; $ $ 1X2X$ o ",
"4 4 u $Xd d d d d d d U d d d d d z d d q 0 4 4 ; $ $ $ 2X3XO   ",
"4 4 4 4 q h g s d ).d d d d d d d x F.w 4 I 4 : $ < $ $ $ @ o   ",
"4 4 4 4 4 4 4 4 4 w h h h h h h h u 4 4 4 4 : $ $ $ $ $ 6 o 4X  "
};
