/* XPM */
static char *result[] = {
/* columns rows colors chars-per-pixel */
"32 32 202 2 ",
"   c #09091A",
".  c #0C0C23",
"X  c #0D0D26",
"o  c #0E0E29",
"O  c #111131",
"+  c #10102D",
"@  c #0B0B1F",
"#  c #080818",
"$  c #050510",
"%  c #05050F",
"&  c #0E0E28",
"*  c #191939",
"=  c #0F0F2C",
"-  c #14142E",
";  c #4D4D6A",
":  c #070714",
">  c #1F1F2B",
",  c #0C0C22",
"<  c #111130",
"1  c #222241",
"2  c #121231",
"3  c #181838",
"4  c #151534",
"5  c #09091B",
"6  c #1E1E32",
"7  c #1B1B2E",
"8  c #080817",
"9  c #10102F",
"0  c #525272",
"q  c #3C3C5C",
"w  c #15152E",
"e  c #222236",
"r  c #0A0A1D",
"t  c #1E1E36",
"y  c #1A1A39",
"u  c #0D0D27",
"i  c #0D0D25",
"p  c #0E0E2A",
"a  c #565678",
"s  c #131334",
"d  c #151537",
"f  c #121232",
"g  c #0B0B21",
"h  c #151538",
"j  c #17173C",
"k  c #16163A",
"l  c #0F0F2D",
"z  c #1A1A2B",
"x  c #141436",
"c  c #1E1127",
"v  c #441B2F",
"b  c #4B3B48",
"n  c #46292B",
"m  c #472A2B",
"M  c #482B2D",
"N  c #543234",
"B  c #593535",
"V  c #432B37",
"C  c #626289",
"Z  c #090919",
"A  c #95432F",
"S  c #D27E32",
"D  c #552031",
"F  c #6A3824",
"G  c #B05920",
"H  c #CF6924",
"J  c #DE7126",
"K  c #C86728",
"L  c #9C532D",
"P  c #131332",
"I  c #232341",
"U  c #0F0F2A",
"Y  c #411925",
"T  c #AB3232",
"R  c #E5A432",
"E  c #F3D735",
"W  c #9E7331",
"Q  c #9F501E",
"!  c #D46C25",
"~  c #1D1020",
"^  c #673F4F",
"/  c #CB7132",
"(  c #EAB533",
")  c #844030",
"_  c #994D1D",
"`  c #AA561F",
"'  c #B55C21",
"]  c #B8947B",
"[  c #8B8080",
"{  c #7C7C88",
"}  c #888895",
"|  c #626277",
" . c #161639",
".. c #2B2B48",
"X. c #1B0E1D",
"o. c #3F1722",
"O. c #2F1425",
"+. c #76262E",
"@. c #855337",
"#. c gray55",
"$. c #929292",
"%. c #A5A5A5",
"&. c gray67",
"*. c #AEAEAE",
"=. c #BBBBBB",
"-. c #C1C1C1",
";. c #737381",
":. c #4C4C61",
">. c #87292D",
",. c #511C26",
"<. c #2C1B24",
"1. c #753E25",
"2. c #7B4126",
"3. c #965C39",
"4. c #A66C46",
"5. c #AC724C",
"6. c #B7784E",
"7. c #CB8250",
"8. c #C59473",
"9. c gray",
"0. c #97ACC1",
"q. c #83A4C5",
"w. c #84AACF",
"e. c #878791",
"r. c #383851",
"t. c #10102E",
"y. c #75242A",
"u. c #BE5832",
"i. c #94432D",
"p. c #BA5E21",
"a. c #D88348",
"s. c #CBA68D",
"d. c #8DA8C3",
"f. c #659BD1",
"g. c #669ED6",
"h. c #7AA6D1",
"j. c #B7BDC3",
"k. c #9292A1",
"l. c #3E3E57",
"z. c #742428",
"x. c #992D2F",
"c. c #DD9C33",
"v. c #F8E836",
"b. c #E8BA34",
"n. c #4F332A",
"m. c #D48C5A",
"M. c #A3B5C8",
"N. c #AEAEB1",
"B. c #86868F",
"V. c #4E3229",
"C. c #89B2DB",
"Z. c #AABACA",
"A. c #94422D",
"S. c #1D1024",
"D. c #8EAECD",
"F. c #B9CCDF",
"G. c #A2BDD8",
"H. c #B9BFC4",
"J. c #0F0F2B",
"K. c #511B25",
"L. c #743C21",
"P. c #7A4022",
"I. c #A2B8CD",
"U. c #92B3D3",
"Y. c #393951",
"T. c #080816",
"R. c #2D121F",
"E. c #75252B",
"W. c #683620",
"Q. c #767686",
"!. c #6F6F87",
"~. c #54546C",
"^. c #616176",
"/. c #1B1B2B",
"(. c #833F2D",
"). c #151539",
"_. c #2A2A48",
"`. c #10101B",
"'. c #3F1721",
"]. c #9C712C",
"[. c #6D3B25",
"{. c #57322F",
"}. c #17173B",
"|. c #16163B",
" X c #131333",
".X c #CD6C2D",
"XX c #A05831",
"oX c #432624",
"OX c #4E2C27",
"+X c #55312D",
"@X c #3F262F",
"#X c #1B1B3B",
"$X c #060612",
"%X c #121223",
"&X c #060611",
"*X c #5D5D7F",
"=X c #141421",
"-X c #161627",
";X c #0C0C24",
":X c #232334",
">X c #1A1A35",
",X c #484863",
/* pixels */
"  . X o O O O O O O O O O O O O O + o X X X X @       # $ % % % ",
"  . X & O O O O O O O O O O O O O * O = - ; X X @         : $ > ",
"  , X X < O O O O * 1 2 2 3 4 2 O 1 O O = X X X X 5     6 7 8 $ ",
"  @ X X 9 O O O O 2 2 2 2 0 q 2 2 O O O O o X w X ,     e 6   # ",
"  r X t = O O 3 O 2 2 2 2 2 2 2 2 2 y O O < u w X X .           ",
"  5 i X p O O a O 2 2 2 s d d s f 2 y O O O 9 X X w t .         ",
"    g X u O O O O 2 2 h j j j j k f 2 2 O O O l X X X X ,   z   ",
"    r X X 9 O O O 2 x j j j j j j k f 2 O O O O o X X X X ,     ",
"      , c v O b n m M N B B V j C j k f 2 O O O O p X X X X .   ",
"Z     @ A S D F G G G H J J K L j j j k P 2 I 2 2 O U X X X X . ",
"8   Y T R E W F Q G G G ! J J J J B j j k P 2 2 2 2 O + u t w X ",
"8   ~ ^ / ( ) F _ ` G G ' ! J J ] [ { } |  .2 2 ..2 2 O 9 & X X ",
"8   X.o.O.+.o O F @.#.$.%.%.%.&.*.=.-.-.-.-.-.;.:.:.2 O O O o X ",
"8   >.T ,.X <.1.2.3.4.5.6.7.8.9.-.-.-.-.-.0.q.w.-.-.e.r.O O t.X ",
"8 y.u.( i.c Q G G G G p.J J a.s.-.-.-.-.d.f.g.g.h.j.-.-.-.k.l.u ",
"z.x.c.v.b.n.Q G G G G H J J J J m.m.-.-.f.g.g.g.g.M.-.-.-.-.N.B.",
"z.x.c.v.b.V.Q G G G G H J J J J m.m.-.-.g.g.g.g.C.Z.-.-.-.-.N.B.",
": y.u.( A.S.Q G G G G p.J J a.s.-.-.-.-.D.g.F.F.G.H.-.-.-.;.r.J.",
"$   >.T K.@ <.L.P.3.4.5.6.7.8.9.-.-.-.-.-.I.U.U.-.-.e.Y.O O O J.",
"% T.X.o.R.E.t X W.@.#.$.%.%.%.&.*.=.-.-.-.-.-.Q.!.~.2 2 O O O J.",
"^./.X.o./ ( (.W._ ` G G ' ! J J ] [ { } | j j j j ).2 2 O _.O J.",
"`.$ '.T R E ].[.Q G G G ! J J J J {.}.j j j j j |. X2 2 O O O J.",
"% % 8   A.S ,.W.G G G H J J .XXX2 2 s j j j j }. XI 2 O O O 1 o ",
"% % :   X.o.  <.oXoXoXOX+X+X@XO O 2 y #Xj j h 2 2 2 O O O O O X ",
"% % $X%X%X    @ X X w w o O O O O O 2 2 2 2 2 2 2 2 O _.O O < X ",
"% % &X        5 X X X X X t.O O O O O 2 2 2 2 *X2 O O O O O + X ",
"% % % Z         , X X X X u 9 O _.O O O 2 2 2 2 O O O O O O J.X ",
"% % % #         r X X X X X & < O O O O O 2 O O O O O O O O & X ",
"% % % =X-X        ;Xt X X X X p O O O O O O O O O O O O O l X X ",
"% % % &X          @ X X X X X X p < O O O 1 O O O O O O 9 u X X ",
"% % % % 8         5 . X X X X X X & t.O O O O O O O O 9 u X X X ",
"% % % % $ #   :X    5 ;XX X >X,XX X u J.O O O O O O t.u X X X X "
};
