/* XPM */
static char *result[] = {
/* columns rows colors chars-per-pixel */
"32 32 202 2 ",
"   c #05050F",
".  c #1F1F2B",
"X  c #050510",
"o  c #080818",
"O  c #09091A",
"+  c #0C0C23",
"@  c #0D0D26",
"#  c #0D0D27",
"$  c #86868F",
"%  c #0F0F2B",
"&  c #0E0E29",
"*  c #080817",
"=  c #1A1A2B",
"-  c #15152E",
";  c #10102E",
":  c #3E3E57",
">  c #AEAEB1",
",  c #383851",
"<  c #111131",
"1  c #222241",
"2  c #111130",
"3  c #10102D",
"4  c #0E0E28",
"5  c #070714",
"6  c #1B1B2E",
"7  c #1E1E32",
"8  c #0C0C22",
"9  c #1E1E36",
"0  c #9292A1",
"q  c #C1C1C1",
"w  c #737381",
"e  c #2A2A48",
"r  c #0F0F2D",
"t  c #222236",
"y  c #10102F",
"u  c #393951",
"i  c #121231",
"p  c #0F0F2A",
"a  c #878791",
"s  c #09091B",
"d  c #0E0E2A",
"f  c #4C4C61",
"g  c #B7BDC3",
"h  c #A3B5C8",
"j  c #AABACA",
"k  c #B9BFC4",
"l  c #54546C",
"z  c #151539",
"x  c #131333",
"c  c #232341",
"v  c #0B0B1F",
"b  c #2B2B48",
"n  c #7AA6D1",
"m  c #669ED6",
"M  c #89B2DB",
"N  c #A2BDD8",
"B  c #6F6F87",
"V  c #17173C",
"C  c #16163B",
"Z  c #84AACF",
"A  c #B9CCDF",
"S  c #92B3D3",
"D  c #767686",
"F  c #17173B",
"G  c #5D5D7F",
"H  c #83A4C5",
"J  c #151538",
"K  c #4D4D6A",
"L  c #131332",
"P  c #161639",
"I  c #97ACC1",
"U  c #659BD1",
"Y  c #A2B8CD",
"T  c #14142E",
"R  c #0F0F2C",
"E  c #16163A",
"W  c #626277",
"Q  c #8DA8C3",
"!  c #8EAECD",
"~  c #121232",
"^  c #888895",
"/  c #1B1B3B",
"(  c #1A1A39",
")  c #7C7C88",
"_  c #131334",
"`  c #191939",
"'  c #593535",
"]  c #8B8080",
"[  c #BBBBBB",
"{  c #D48C5A",
"}  c #57322F",
"|  c #626289",
" . c #DE7126",
".. c #B8947B",
"X. c #AEAEAE",
"o. c #9C532D",
"O. c gray67",
"+. c gray",
"@. c #CBA68D",
"#. c #A05831",
"$. c #484863",
"%. c #151534",
"&. c #3C3C5C",
"*. c #151537",
"=. c #432B37",
"-. c #C86728",
";. c #A5A5A5",
":. c #C59473",
">. c #D88348",
",. c #CD6C2D",
"<. c #3F262F",
"1. c #1A1A35",
"2. c #181838",
"3. c #525272",
"4. c #D46C25",
"5. c #CB8250",
"6. c #55312D",
"7. c #B55C21",
"8. c #B7784E",
"9. c #543234",
"0. c #CF6924",
"q. c #B05920",
"w. c #929292",
"e. c #AC724C",
"r. c #BA5E21",
"t. c #4E2C27",
"y. c #0C0C24",
"u. c #141436",
"i. c #482B2D",
"p. c gray55",
"a. c #A66C46",
"s. c #432624",
"d. c #472A2B",
"f. c #AA561F",
"g. c #855337",
"h. c #965C39",
"j. c #46292B",
"k. c #9F501E",
"l. c #994D1D",
"z. c #6A3824",
"x. c #7B4126",
"c. c #7A4022",
"v. c #683620",
"b. c #0A0A1D",
"n. c #565678",
"m. c #4B3B48",
"M. c #753E25",
"N. c #743C21",
"B. c #6D3B25",
"V. c #2C1B24",
"C. c #232334",
"Z. c #552031",
"A. c #9E7331",
"S. c #844030",
"D. c #833F2D",
"F. c #9C712C",
"G. c #511C26",
"H. c #441B2F",
"J. c #D27E32",
"K. c #F3D735",
"L. c #EAB533",
"P. c #76262E",
"I. c #1E1127",
"U. c #4F332A",
"Y. c #4E3229",
"T. c #1D1024",
"R. c #75252B",
"E. c #3F1722",
"W. c #95432F",
"Q. c #E5A432",
"!. c #CB7132",
"~. c #2F1425",
"^. c #94432D",
"/. c #E8BA34",
"(. c #94422D",
"). c #511B25",
"_. c #2D121F",
"`. c #1B0E1D",
"'. c #121223",
"]. c #161627",
"[. c #AB3232",
"{. c #673F4F",
"}. c #F8E836",
"|. c #090919",
" X c #141421",
".X c #060611",
"XX c #0D0D25",
"oX c #0B0B21",
"OX c #411925",
"+X c #1D1020",
"@X c #87292D",
"#X c #BE5832",
"$X c #DD9C33",
"%X c #3F1721",
"&X c #060612",
"*X c #75242A",
"=X c #992D2F",
"-X c #080816",
";X c #1B1B2B",
":X c #742428",
">X c #616176",
",X c #10101B",
/* pixels */
"  . X o O O O O O + @ @ @ @ # $ $ % % % % % & @ @ @ @ @ @ @ @ @ ",
"  X * O O O = O + @ - @ & ; : > > , < < < < 1 < 2 3 % 4 @ @ @ @ ",
"  5 6 7 O O O 8 @ @ 9 4 < < 0 q q w < < e < < < < < < < r # @ @ ",
"X O 7 t O O 8 @ @ @ # y < < q q q q < < < < < < < < < < < y # @ ",
"o O O O O + @ @ @ @ 3 < < , q q q q u i i i < < e < < < < < y # ",
"O O O O + 9 @ @ @ p < i i a q q q q a i i i i < < < < < < < < ; ",
"O O s 8 @ - @ @ d < i i f q g h j k q l z x c i i < < < < < < < ",
"O v @ @ @ @ @ & < i i b f q n m M N q B V C x i i i < < < < < < ",
"v @ @ - - @ r < < i i i w Z m m m A S D V V F i i G i < < < < < ",
"@ @ @ @ # y < < < c i i q H m m m A S q V V V J i i i < < < < < ",
"@ K @ & 2 < < < < i L P q I U m m m Y q V V V V i i i i < 1 < < ",
"@ T R < < < < < i L E W q q Q U m ! q q W V V V i i i < < < < < ",
"@ R < < < < i i ~ E V ^ q q q q q q q q ^ V V / i i < < < < < % ",
"& < < < ( ( i ~ E V V ) q q q q q q q q ) F _ ( i < < < < < ; # ",
"3 ` 1 < i i ~ E V V ' ] [ q q { { q q [ ] } i i < < < < < 2 4 @ ",
"< < < i i ~ E V | V  ...X.q q { { q q X... .i < < < e < < d @ @ ",
"< < i i i _ V V V o. . .O.+.@. . .@.+.O. . .#.< < < < 2 d @ @ $.",
"< < %.&.i *.V V =.-. . .;.:.>. . .>.:.;. . .,.<.< < y 4 @ @ @ 1.",
"< < 2.3.i *.V V '  . .4.;.5. . . . .5.;.4. . .6.< ; # @ @ @ @ @ ",
"< < i i i _ V V '  .4.7.;.8. . . . .8.;.7.4. .6.& @ @ @ @ @ @ @ ",
"< < i i i i J V 9.0.q.q.w.e.r.0.0.r.e.w.q.q.0.t.- @ @ @ @ @ @ y.",
"< < 1 i i i i u.i.q.q.q.p.a.q.q.q.q.a.p.q.q.q.s.- @ @ @ 9 @ + s ",
"< < ` i i i i i d.q.q.f.g.h.q.q.q.q.h.g.f.q.q.s.@ @ @ @ y.v s O ",
"< < < < < < < < j.q.k.l.z.x.q.q.q.q.c.v.l.k.q.s.@ @ 8 b.O O O O ",
"< < < < 2.n.< < m.z.z.z.< M.q.q.q.q.N.@ v.B.v.V.v s O O O O O C.",
"< < < < < < < < < Z.A.S.& V.k.k.k.k.V.9 D.F.G.O O O O O O O O O ",
"< < < < < < < y H.J.K.L.P.@ I.U.Y.T.v R.L.K.J.E.O O O O O O O o ",
"< < 2 y R d # @ I.W.Q.!.~.G.^././.(.)._.!.Q.(.`.'.O O O ].O * X ",
"& 4 @ @ 9 @ @ @ 8 v [.{.E.[.L.}.}.L.[.E.E.[.O O '.O |.o  X.X    ",
"@ @ @ @ @ XXoXb.O O OX+X`.@X#X$X$X#X@X`.`.%X* 5 &X.X            ",
"+ + 8 v b.s O O O O O O O O *X=X=X*XO -X;XX                     ",
"O O O O O O O O O |.* * * * * :X:X5 X   >X,X                    "
};
